# Blender v2.93.6 OBJ File: 'koryto.blend'
# www.blender.org
mtllib koryto.mtl
o Cube
v -10.000000 1.023121 10.000000
v -10.000000 0.123721 10.000000
v -10.000000 1.023121 -10.000000
v -10.000000 0.123721 -10.000000
v 10.000000 1.023121 10.000000
v 10.000000 0.123721 10.000000
v 10.000000 1.023121 -10.000000
v 10.000000 0.123721 -10.000000
v 1.223516 0.546198 -9.427036
v 0.828437 0.553536 -6.892190
v -0.307787 0.590039 -4.614056
v -0.987744 0.590045 -2.518493
v -1.864178 0.557317 -0.405275
v -1.864178 0.557317 1.594725
v -2.797940 0.598922 3.795177
v -2.797940 0.598922 5.795177
v -2.797940 0.598922 7.795176
v -3.842323 0.642803 9.968513
v -4.037413 0.652411 9.968513
v -2.993030 0.608529 7.795176
v -2.993030 0.608529 5.795176
v -2.993030 0.608529 3.795176
v -2.059269 0.566924 1.594725
v -2.059269 0.566924 -0.405275
v -1.182835 0.599652 -2.518493
v -0.502877 0.599646 -4.614056
v 0.633347 0.563143 -6.892190
v 1.028425 0.555805 -9.427036
v -4.225007 0.680864 9.968513
v -3.180623 0.636982 7.795176
v -3.180623 0.636982 5.795176
v -3.180623 0.636982 3.795176
v -2.246862 0.595377 1.594725
v -2.246862 0.595377 -0.405275
v -1.370428 0.628105 -2.518493
v -0.690471 0.628099 -4.614056
v 0.445754 0.591596 -6.892190
v 0.840832 0.584258 -9.427036
v -4.397893 0.727069 9.968513
v -3.353509 0.683187 7.795176
v -3.353509 0.683187 5.795176
v -3.353509 0.683187 3.795176
v -2.419748 0.641582 1.594725
v -2.419748 0.641582 -0.405275
v -1.543314 0.674310 -2.518493
v -0.863357 0.674304 -4.614056
v 0.272867 0.637801 -6.892190
v 0.667945 0.630463 -9.427036
v -4.549429 0.789250 9.968513
v -3.505046 0.745369 7.795176
v -3.505046 0.745369 5.795176
v -3.505046 0.745369 3.795176
v -2.571285 0.703763 1.594725
v -2.571285 0.703763 -0.405275
v -1.694851 0.736492 -2.518493
v -1.014894 0.736485 -4.614056
v 0.121330 0.699982 -6.892190
v 0.516409 0.692644 -9.427036
v -4.673793 0.865018 9.968513
v -3.629409 0.821137 7.795176
v -3.629409 0.821137 5.795176
v -3.629409 0.821137 3.795176
v -2.695648 0.779532 1.594725
v -2.695648 0.779532 -0.405275
v -1.819214 0.812260 -2.518493
v -1.139257 0.812254 -4.614056
v -0.003032 0.775750 -6.892190
v 0.392046 0.768413 -9.427036
v -4.766202 0.951462 9.968513
v -3.721818 0.907580 7.795176
v -3.721818 0.907580 5.795176
v -3.721818 0.907580 3.795176
v -2.788057 0.865975 1.594725
v -2.788057 0.865975 -0.405275
v -1.911623 0.898703 -2.518493
v -1.231667 0.898697 -4.614056
v -0.095442 0.862194 -6.892190
v 0.299636 0.854856 -9.427036
v -3.778724 1.001377 7.795176
v -3.778724 1.001377 5.795176
v -3.778724 1.001377 3.795176
v -2.844963 0.959772 1.594725
v -2.844963 0.959772 -0.405275
v -1.968529 0.992500 -2.518493
v -1.288572 0.992494 -4.614056
v -0.152348 0.955990 -6.892190
v 0.242731 0.948653 -9.427036
v -1.817154 1.001377 7.795176
v -1.817154 1.001377 5.795176
v -1.817154 1.001377 3.795176
v -0.883393 0.959772 1.594725
v -0.883393 0.959772 -0.405275
v -0.006959 0.992500 -2.518493
v 0.672998 0.992493 -4.614056
v 1.809222 0.955990 -6.892190
v 2.204301 0.948653 -9.427036
v -1.874060 0.907580 7.795176
v -1.874060 0.907580 5.795176
v -1.874060 0.907580 3.795176
v -0.940299 0.865975 1.594725
v -0.940299 0.865975 -0.405275
v -0.063865 0.898703 -2.518493
v 0.616092 0.898697 -4.614056
v 1.752317 0.862194 -6.892190
v 2.147395 0.854856 -9.427036
v -1.966469 0.821137 7.795176
v -1.966469 0.821137 5.795176
v -1.966469 0.821137 3.795176
v -1.032709 0.779532 1.594725
v -1.032709 0.779532 -0.405275
v -0.156275 0.812260 -2.518493
v 0.523683 0.812254 -4.614056
v 1.659907 0.775750 -6.892190
v 2.054986 0.768413 -9.427036
v -2.090832 0.745369 7.795176
v -2.090832 0.745369 5.795176
v -2.090832 0.745369 3.795176
v -1.157071 0.703763 1.594725
v -1.157071 0.703763 -0.405275
v -0.280638 0.736492 -2.518493
v 0.399320 0.736485 -4.614056
v 1.535544 0.699982 -6.892190
v 1.930623 0.692644 -9.427036
v -2.242369 0.683187 7.795176
v -2.242369 0.683187 5.795176
v -2.242369 0.683187 3.795176
v -1.308608 0.641582 1.594725
v -1.308608 0.641582 -0.405275
v -0.432174 0.674310 -2.518493
v 0.247783 0.674304 -4.614056
v 1.384008 0.637801 -6.892190
v 1.779086 0.630463 -9.427036
v -2.415256 0.636982 7.795176
v -2.415256 0.636982 5.795176
v -2.415256 0.636982 3.795176
v -1.481495 0.595377 1.594725
v -1.481495 0.595377 -0.405275
v -0.605061 0.628105 -2.518493
v 0.074896 0.628099 -4.614056
v 1.211121 0.591596 -6.892190
v 1.606199 0.584258 -9.427036
v -2.602849 0.608529 7.795176
v -2.602849 0.608529 5.795176
v -2.602849 0.608529 3.795176
v -1.669088 0.566924 1.594725
v -1.669088 0.566924 -0.405275
v -0.792654 0.599652 -2.518493
v -0.112697 0.599646 -4.614056
v 1.023528 0.563143 -6.892190
v 1.418606 0.555805 -9.427036
v 2.218970 1.023121 -9.427036
v -2.857442 1.023121 1.594725
v 1.684625 0.559691 -10.000000
v 0.679031 1.023121 -4.614056
v -2.857442 1.023121 -0.405275
v -3.393531 0.680647 10.000000
v 1.822446 1.023121 -6.892190
v -3.783007 1.023121 3.795176
v -0.870914 1.023121 1.594725
v -1.812871 1.023121 3.795176
v -1.812871 1.023121 5.795176
v -0.000927 1.023121 -2.518493
v -1.812871 1.023121 7.795176
v -2.304303 1.023121 8.893106
v -2.808729 1.023121 10.000000
v -3.581125 0.652195 10.000000
v -4.296229 1.023121 8.872092
v -4.830263 1.023121 10.000000
v -4.809677 1.023121 9.968513
v -3.783007 1.023121 5.795176
v -3.783007 1.023121 7.795176
v 2.045105 0.634349 -10.000000
v -0.870914 1.023121 -0.405275
v 1.872218 0.588144 -10.000000
v -3.220644 0.726852 10.000000
v 2.196641 0.696531 -10.000000
v 0.565655 0.858742 -10.000000
v 2.484223 1.023121 -10.000000
v 0.494846 1.023121 -10.000000
v 0.228062 1.023121 -9.427036
v 0.508749 0.952539 -10.000000
v -0.165571 1.023121 -6.892190
v -1.294605 1.023121 -4.614056
v -1.974561 1.023121 -2.518493
v -3.069108 0.789034 10.000000
v 0.658065 0.772299 -10.000000
v 2.321004 0.772299 -10.000000
v 0.782428 0.696531 -10.000000
v -2.944745 0.864802 10.000000
v 2.413414 0.858742 -10.000000
v 2.470320 0.952539 -10.000000
v 0.933964 0.634349 -10.000000
v 1.106851 0.588144 -10.000000
v -2.852335 0.951245 10.000000
v 1.294444 0.559692 -10.000000
v 1.489534 0.550084 -10.000000
v -4.694548 0.865298 10.000000
v -4.786957 0.951741 10.000000
v -4.570185 0.789529 10.000000
v -3.808287 0.644957 10.000000
v -3.863078 0.643083 10.000000
v -4.418648 0.727348 10.000000
v -4.058168 0.652690 10.000000
v -4.245762 0.681143 10.000000
vt 0.689622 0.500000
vt 0.689879 0.500394
vt 0.696297 0.514099
vt 0.702712 0.527560
vt 0.702712 0.552560
vt 0.702712 0.577560
vt 0.714282 0.605066
vt 0.714282 0.630066
vt 0.725318 0.656481
vt 0.733817 0.682676
vt 0.747930 0.711152
vt 0.752851 0.742838
vt 0.756186 0.750000
vt 0.625000 0.750000
vt 0.625000 0.500000
vt 0.781053 0.750000
vt 0.777737 0.742838
vt 0.772781 0.711152
vt 0.758488 0.682676
vt 0.749988 0.656481
vt 0.739114 0.630066
vt 0.739114 0.605066
vt 0.727339 0.577560
vt 0.727339 0.552560
vt 0.727339 0.527560
vt 0.721196 0.513836
vt 0.714891 0.500000
vt 0.875000 0.500000
vt 0.875000 0.750000
vt 0.625000 0.906053
vt 0.625000 1.000000
vt 0.375000 1.000000
vt 0.375000 0.750000
vt 0.625000 0.881186
vt 0.605381 0.881359
vt 0.579309 0.882071
vt 0.555281 0.883226
vt 0.534220 0.884780
vt 0.516936 0.886675
vt 0.504093 0.888836
vt 0.496184 0.891181
vt 0.493513 0.893619
vt 0.496184 0.896058
vt 0.504093 0.898403
vt 0.516936 0.900564
vt 0.534220 0.902458
vt 0.555281 0.904013
vt 0.579309 0.905168
vt 0.605381 0.905879
vt 0.375000 0.000000
vt 0.625000 0.000000
vt 0.625000 0.250000
vt 0.375000 0.250000
vt 0.125000 0.500000
vt 0.375000 0.500000
vt 0.125000 0.750000
vt 0.625000 0.435378
vt 0.625000 0.410109
vt 0.605021 0.410654
vt 0.580993 0.411809
vt 0.559932 0.413364
vt 0.542648 0.415258
vt 0.529805 0.417419
vt 0.521896 0.419764
vt 0.519884 0.422604
vt 0.519363 0.423288
vt 0.522034 0.425727
vt 0.529943 0.428072
vt 0.542786 0.430233
vt 0.560070 0.432127
vt 0.581131 0.433682
vt 0.605159 0.434837
vt 1.000000 0.954545
vt 0.968750 0.954545
vt 0.968750 0.955276
vt 1.000000 0.955276
vt 0.937500 0.954545
vt 0.937500 0.955276
vt 0.906250 0.954545
vt 0.906250 0.955276
vt 0.875000 0.954545
vt 0.875000 0.955276
vt 0.843750 0.954545
vt 0.843750 0.955276
vt 0.812500 0.954545
vt 0.812500 0.955276
vt 0.788625 0.954545
vt 0.788719 0.955276
vt 0.000000 0.954545
vt 0.000000 0.955276
vt 0.005452 0.954545
vt 0.000000 0.532873
vt 0.000000 0.545455
vt 0.031250 0.545455
vt 0.031250 0.532873
vt 0.000000 0.590909
vt 0.031250 0.590909
vt 0.000000 0.636364
vt 0.031250 0.636364
vt 0.000000 0.681818
vt 0.031250 0.681818
vt 0.000000 0.727273
vt 0.031250 0.727273
vt 0.000000 0.772727
vt 0.031250 0.772727
vt 0.000000 0.818182
vt 0.031250 0.818182
vt 0.000000 0.863636
vt 0.031250 0.863636
vt 0.000000 0.909091
vt 0.031250 0.909091
vt 0.031250 0.951668
vt 0.062500 0.545455
vt 0.062500 0.532873
vt 0.062500 0.590909
vt 0.062500 0.636364
vt 0.062500 0.681818
vt 0.062500 0.727273
vt 0.062500 0.772727
vt 0.062500 0.818182
vt 0.062500 0.863636
vt 0.062500 0.909091
vt 0.062500 0.951668
vt 0.093750 0.545455
vt 0.093750 0.532873
vt 0.093750 0.590909
vt 0.093750 0.636364
vt 0.093750 0.681818
vt 0.093750 0.727273
vt 0.093750 0.772727
vt 0.093750 0.818182
vt 0.093750 0.863636
vt 0.093750 0.909091
vt 0.093750 0.951668
vt 0.125000 0.545455
vt 0.125000 0.532873
vt 0.125000 0.590909
vt 0.125000 0.636364
vt 0.125000 0.681818
vt 0.125000 0.727273
vt 0.125000 0.772727
vt 0.125000 0.818182
vt 0.125000 0.863636
vt 0.125000 0.909091
vt 0.125000 0.951668
vt 0.156250 0.545455
vt 0.156250 0.532873
vt 0.156250 0.590909
vt 0.156250 0.636364
vt 0.156250 0.681818
vt 0.156250 0.727273
vt 0.156250 0.772727
vt 0.156250 0.818182
vt 0.156250 0.863636
vt 0.156250 0.909091
vt 0.156250 0.951668
vt 0.187500 0.545455
vt 0.187500 0.532873
vt 0.187500 0.590909
vt 0.187500 0.636364
vt 0.187500 0.681818
vt 0.187500 0.727273
vt 0.187500 0.772727
vt 0.187500 0.818182
vt 0.187500 0.863636
vt 0.187500 0.909091
vt 0.187500 0.951668
vt 0.218750 0.545455
vt 0.218750 0.532873
vt 0.218750 0.590909
vt 0.218750 0.636364
vt 0.218750 0.681818
vt 0.218750 0.727273
vt 0.218750 0.772727
vt 0.218750 0.818182
vt 0.218750 0.863636
vt 0.218750 0.909091
vt 0.218750 0.930293
vt 0.211447 0.951668
vt 0.242607 0.545455
vt 0.241362 0.532873
vt 0.240256 0.590909
vt 0.228562 0.636364
vt 0.228560 0.681818
vt 0.239045 0.727273
vt 0.239045 0.772727
vt 0.225716 0.818182
vt 0.225716 0.863636
vt 0.225716 0.909091
vt 0.757393 0.545455
vt 0.781250 0.545455
vt 0.781250 0.532873
vt 0.758638 0.532873
vt 0.781250 0.590909
vt 0.759744 0.590909
vt 0.781250 0.636364
vt 0.771438 0.636364
vt 0.781250 0.681818
vt 0.771440 0.681818
vt 0.781250 0.727273
vt 0.760955 0.727273
vt 0.781250 0.772727
vt 0.760955 0.772727
vt 0.781250 0.818182
vt 0.774284 0.818182
vt 0.781250 0.863636
vt 0.774284 0.863636
vt 0.781250 0.909091
vt 0.774284 0.909091
vt 0.781250 0.931614
vt 0.812500 0.545455
vt 0.812500 0.532873
vt 0.812500 0.590909
vt 0.812500 0.636364
vt 0.812500 0.681818
vt 0.812500 0.727273
vt 0.812500 0.772727
vt 0.812500 0.818182
vt 0.812500 0.863636
vt 0.812500 0.909091
vt 0.843750 0.545455
vt 0.843750 0.532873
vt 0.843750 0.590909
vt 0.843750 0.636364
vt 0.843750 0.681818
vt 0.843750 0.727273
vt 0.843750 0.772727
vt 0.843750 0.818182
vt 0.843750 0.863636
vt 0.843750 0.909091
vt 0.875000 0.545455
vt 0.875000 0.532873
vt 0.875000 0.590909
vt 0.875000 0.636364
vt 0.875000 0.681818
vt 0.875000 0.727273
vt 0.875000 0.772727
vt 0.875000 0.818182
vt 0.875000 0.863636
vt 0.875000 0.909091
vt 0.906250 0.545455
vt 0.906250 0.532873
vt 0.906250 0.590909
vt 0.906250 0.636364
vt 0.906250 0.681818
vt 0.906250 0.727273
vt 0.906250 0.772727
vt 0.906250 0.818182
vt 0.906250 0.863636
vt 0.906250 0.909091
vt 0.937500 0.545455
vt 0.937500 0.532873
vt 0.937500 0.590909
vt 0.937500 0.636364
vt 0.937500 0.681818
vt 0.937500 0.727273
vt 0.937500 0.772727
vt 0.937500 0.818182
vt 0.937500 0.863636
vt 0.937500 0.909091
vt 0.968750 0.545455
vt 0.968750 0.532873
vt 0.968750 0.590909
vt 0.968750 0.636364
vt 0.968750 0.681818
vt 0.968750 0.727273
vt 0.968750 0.772727
vt 0.968750 0.818182
vt 0.968750 0.863636
vt 0.968750 0.909091
vt 1.000000 0.545455
vt 1.000000 0.532873
vt 1.000000 0.590909
vt 1.000000 0.636364
vt 1.000000 0.681818
vt 1.000000 0.727273
vt 1.000000 0.772727
vt 1.000000 0.818182
vt 1.000000 0.863636
vt 1.000000 0.909091
vn 0.0000 1.0000 -0.0000
vn 0.0000 0.0000 -1.0000
vn 1.0000 0.0000 0.0000
vn 0.0000 -1.0000 0.0000
vn -1.0000 0.0000 0.0000
vn -0.0000 0.0000 1.0000
vn 0.0492 0.9985 0.0236
vn 0.1494 0.9847 0.0897
vn 0.2549 0.9537 0.1595
vn 0.3690 0.8992 0.2352
vn 0.4933 0.8097 0.3180
vn 0.6244 0.6675 0.4057
vn 0.7463 0.4528 0.4879
vn -0.0342 0.9989 -0.0314
vn -0.0492 0.9987 -0.0161
vn -0.0492 0.9987 -0.0106
vn -0.0491 0.9980 -0.0405
vn -0.0492 0.9987 -0.0160
vn -0.0492 0.9988 -0.0049
vn -0.0492 0.9988 0.0000
vn -0.0491 0.9980 -0.0397
vn -0.0389 0.9985 -0.0379
vn -0.1497 0.9867 -0.0628
vn -0.1499 0.9884 -0.0262
vn -0.1493 0.9847 -0.0903
vn -0.1498 0.9875 -0.0486
vn -0.1498 0.9876 -0.0468
vn -0.1500 0.9887 0.0000
vn -0.1495 0.9854 -0.0821
vn -0.1494 0.9850 -0.0858
vn -0.2566 0.9599 -0.1126
vn -0.2580 0.9652 -0.0430
vn -0.2555 0.9562 -0.1428
vn -0.2573 0.9627 -0.0835
vn -0.2571 0.9620 -0.0917
vn -0.2582 0.9661 0.0000
vn -0.2561 0.9583 -0.1268
vn -0.2559 0.9576 -0.1325
vn -0.3743 0.9121 -0.1676
vn -0.3789 0.9234 -0.0617
vn -0.3719 0.9064 -0.2000
vn -0.3768 0.9182 -0.1223
vn -0.3758 0.9158 -0.1417
vn -0.3796 0.9251 0.0000
vn -0.3737 0.9107 -0.1758
vn -0.3732 0.9094 -0.1836
vn -0.5064 0.8312 -0.2295
vn -0.5185 0.8510 -0.0833
vn -0.5019 0.8238 -0.2635
vn -0.5130 0.8421 -0.1665
vn -0.5099 0.8370 -0.1985
vn -0.5203 0.8540 0.0000
vn -0.5063 0.8310 -0.2306
vn -0.5050 0.8289 -0.2405
vn -0.6521 0.6971 -0.2980
vn -0.6791 0.7260 -0.1080
vn -0.6443 0.6888 -0.3324
vn -0.6669 0.7130 -0.2164
vn -0.6592 0.7047 -0.2625
vn -0.6831 0.7303 0.0000
vn -0.6537 0.6988 -0.2906
vn -0.6511 0.6960 -0.3027
vn -0.7956 0.4827 -0.3661
vn -0.8473 0.5141 -0.1335
vn -0.7841 0.4757 -0.3987
vn -0.8238 0.4998 -0.2673
vn -0.8078 0.4901 -0.3274
vn -0.8550 0.5187 0.0000
vn -0.8011 0.4861 -0.3492
vn -0.7966 0.4833 -0.3630
vn -0.8933 0.1760 -0.4136
vn -0.9698 0.1910 -0.1517
vn -0.8802 0.1734 -0.4418
vn -0.9349 0.1842 -0.3034
vn -0.9097 0.1792 -0.3745
vn -0.9811 0.1933 0.0000
vn -0.9046 0.1782 -0.3872
vn -0.8983 0.1770 -0.4021
vn 0.8924 0.1758 0.4155
vn 0.9700 0.1911 0.1506
vn 0.8824 0.1738 0.4373
vn 0.9349 0.1842 0.3034
vn 0.9078 0.1788 0.3793
vn 0.9811 0.1933 0.0000
vn 0.9069 0.1787 0.3815
vn 0.8888 0.1751 0.4236
vn 0.7937 0.4815 0.3718
vn 0.8476 0.5143 0.1306
vn 0.7888 0.4786 0.3857
vn 0.8238 0.4998 0.2673
vn 0.8037 0.4876 0.3409
vn 0.8550 0.5187 0.0000
vn 0.8062 0.4891 0.3329
vn 0.7937 0.4815 0.3717
vn 0.6502 0.6951 0.3066
vn 0.6794 0.7263 0.1038
vn 0.6489 0.6937 0.3125
vn 0.6670 0.7130 0.2164
vn 0.6553 0.7005 0.2826
vn 0.6831 0.7303 0.0000
vn 0.6585 0.7040 0.2661
vn 0.6519 0.6968 0.2992
vn 0.5051 0.8290 0.2401
vn 0.5187 0.8514 0.0784
vn 0.5053 0.8293 0.2387
vn 0.5130 0.8421 0.1665
vn 0.5072 0.8324 0.2232
vn 0.5203 0.8540 0.0000
vn 0.5097 0.8367 0.2005
vn 0.5067 0.8317 0.2267
vn 0.3735 0.9101 0.1796
vn 0.3790 0.9237 0.0564
vn 0.3740 0.9114 0.1719
vn 0.3768 0.9182 0.1223
vn 0.3741 0.9118 0.1693
vn 0.3796 0.9251 0.0000
vn 0.3758 0.9157 0.1421
vn 0.3746 0.9130 0.1616
vn 0.2562 0.9585 0.1254
vn 0.2580 0.9654 0.0374
vn 0.2566 0.9600 0.1126
vn 0.2573 0.9627 0.0835
vn 0.2563 0.9590 0.1211
vn 0.2582 0.9661 0.0000
vn 0.2571 0.9621 0.0909
vn 0.2568 0.9609 0.1040
vn 0.1495 0.9858 0.0761
vn 0.1499 0.9885 0.0205
vn 0.1497 0.9870 0.0588
vn 0.1498 0.9875 0.0486
vn 0.1495 0.9857 0.0773
vn 0.1500 0.9887 0.0000
vn 0.1498 0.9877 0.0449
vn 0.1498 0.9874 0.0520
vn 0.0492 0.9984 0.0296
vn 0.0492 0.9988 0.0048
vn 0.0492 0.9988 0.0085
vn 0.0492 0.9987 0.0160
vn 0.0492 0.9981 0.0358
vn 0.0492 0.9988 0.0000
vn 0.0492 0.9988 0.0020
vn 0.0492 0.9988 0.0035
usemtl Material
s off
f 168/1/1 169/2/1 167/3/1 171/4/1 170/5/1 158/6/1 152/7/1 155/8/1 184/9/1 183/10/1 182/11/1 180/12/1 179/13/1 3/14/1 1/15/1
f 178/16/1 151/17/1 157/18/1 154/19/1 162/20/1 173/21/1 159/22/1 160/23/1 161/24/1 163/25/1 164/26/1 165/27/1 5/28/1 7/29/1
f 178/30/2 7/31/2 8/32/2 4/33/2 3/14/2 179/34/2 181/35/2 177/36/2 186/37/2 188/38/2 192/39/2 193/40/2 195/41/2 196/42/2 153/43/2 174/44/2 172/45/2 176/46/2 187/47/2 190/48/2 191/49/2
f 8/50/3 7/51/3 5/52/3 6/53/3
f 6/54/4 2/55/4 4/33/4 8/56/4
f 2/55/5 1/15/5 3/14/5 4/33/5
f 168/57/6 1/15/6 2/55/6 6/53/6 5/52/6 165/58/6 194/59/6 189/60/6 185/61/6 175/62/6 156/63/6 166/64/6 200/65/6 201/66/6 203/67/6 204/68/6 202/69/6 199/70/6 197/71/6 198/72/6
f 18/73/7 19/74/7 203/75/7 201/76/7
f 19/74/8 29/77/8 204/78/8 203/75/8
f 29/77/9 39/79/9 202/80/9 204/78/9
f 39/79/10 49/81/10 199/82/10 202/80/10
f 49/81/11 59/83/11 197/84/11 199/82/11
f 59/83/12 69/85/12 198/86/12 197/84/12
f 69/85/13 169/87/13 168/88/13 198/86/13
f 18/89/14 201/90/14 200/91/14
f 196/92/15 9/93/15 150/94/15 153/95/15
f 150/94/16 9/93/16 10/96/16 149/97/16
f 149/97/17 10/96/17 11/98/17 148/99/17
f 148/99/18 11/98/18 12/100/18 147/101/18
f 147/101/19 12/100/19 13/102/19 146/103/19
f 146/103/20 13/102/20 14/104/20 145/105/20
f 145/105/21 14/104/21 15/106/21 144/107/21
f 144/107/20 15/106/20 16/108/20 143/109/20
f 143/109/20 16/108/20 17/110/20 142/111/20
f 142/111/22 17/110/22 18/89/22 200/91/22 166/112/22
f 153/95/23 150/94/23 141/113/23 174/114/23
f 141/113/24 150/94/24 149/97/24 140/115/24
f 140/115/25 149/97/25 148/99/25 139/116/25
f 139/116/26 148/99/26 147/101/26 138/117/26
f 138/117/27 147/101/27 146/103/27 137/118/27
f 137/118/28 146/103/28 145/105/28 136/119/28
f 136/119/29 145/105/29 144/107/29 135/120/29
f 135/120/28 144/107/28 143/109/28 134/121/28
f 134/121/28 143/109/28 142/111/28 133/122/28
f 133/122/30 142/111/30 166/112/30 156/123/30
f 174/114/31 141/113/31 132/124/31 172/125/31
f 132/124/32 141/113/32 140/115/32 131/126/32
f 131/126/33 140/115/33 139/116/33 130/127/33
f 130/127/34 139/116/34 138/117/34 129/128/34
f 129/128/35 138/117/35 137/118/35 128/129/35
f 128/129/36 137/118/36 136/119/36 127/130/36
f 127/130/37 136/119/37 135/120/37 126/131/37
f 126/131/36 135/120/36 134/121/36 125/132/36
f 125/132/36 134/121/36 133/122/36 124/133/36
f 124/133/38 133/122/38 156/123/38 175/134/38
f 172/125/39 132/124/39 123/135/39 176/136/39
f 123/135/40 132/124/40 131/126/40 122/137/40
f 122/137/41 131/126/41 130/127/41 121/138/41
f 121/138/42 130/127/42 129/128/42 120/139/42
f 120/139/43 129/128/43 128/129/43 119/140/43
f 119/140/44 128/129/44 127/130/44 118/141/44
f 118/141/45 127/130/45 126/131/45 117/142/45
f 117/142/44 126/131/44 125/132/44 116/143/44
f 116/143/44 125/132/44 124/133/44 115/144/44
f 115/144/46 124/133/46 175/134/46 185/145/46
f 176/136/47 123/135/47 114/146/47 187/147/47
f 114/146/48 123/135/48 122/137/48 113/148/48
f 113/148/49 122/137/49 121/138/49 112/149/49
f 112/149/50 121/138/50 120/139/50 111/150/50
f 111/150/51 120/139/51 119/140/51 110/151/51
f 110/151/52 119/140/52 118/141/52 109/152/52
f 109/152/53 118/141/53 117/142/53 108/153/53
f 108/153/52 117/142/52 116/143/52 107/154/52
f 107/154/52 116/143/52 115/144/52 106/155/52
f 106/155/54 115/144/54 185/145/54 189/156/54
f 187/147/55 114/146/55 105/157/55 190/158/55
f 105/157/56 114/146/56 113/148/56 104/159/56
f 104/159/57 113/148/57 112/149/57 103/160/57
f 103/160/58 112/149/58 111/150/58 102/161/58
f 102/161/59 111/150/59 110/151/59 101/162/59
f 101/162/60 110/151/60 109/152/60 100/163/60
f 100/163/61 109/152/61 108/153/61 99/164/61
f 99/164/60 108/153/60 107/154/60 98/165/60
f 98/165/60 107/154/60 106/155/60 97/166/60
f 97/166/62 106/155/62 189/156/62 194/167/62
f 190/158/63 105/157/63 96/168/63 191/169/63
f 96/168/64 105/157/64 104/159/64 95/170/64
f 95/170/65 104/159/65 103/160/65 94/171/65
f 94/171/66 103/160/66 102/161/66 93/172/66
f 93/172/67 102/161/67 101/162/67 92/173/67
f 92/173/68 101/162/68 100/163/68 91/174/68
f 91/174/69 100/163/69 99/164/69 90/175/69
f 90/175/68 99/164/68 98/165/68 89/176/68
f 89/176/68 98/165/68 97/166/68 88/177/68
f 164/178/70 88/177/70 97/166/70 194/167/70 165/179/70
f 191/169/71 96/168/71 151/180/71 178/181/71
f 151/180/72 96/168/72 95/170/72 157/182/72
f 157/182/73 95/170/73 94/171/73 154/183/73
f 154/183/74 94/171/74 93/172/74 162/184/74
f 162/184/75 93/172/75 92/173/75 173/185/75
f 173/185/76 92/173/76 91/174/76 159/186/76
f 159/186/77 91/174/77 90/175/77 160/187/77
f 160/187/76 90/175/76 89/176/76 161/188/76
f 161/188/76 89/176/76 88/177/76 163/189/76
f 163/189/78 88/177/78 164/178/78
f 180/190/79 87/191/79 181/192/79 179/193/79
f 86/194/80 87/191/80 180/190/80 182/195/80
f 85/196/81 86/194/81 182/195/81 183/197/81
f 84/198/82 85/196/82 183/197/82 184/199/82
f 83/200/83 84/198/83 184/199/83 155/201/83
f 82/202/84 83/200/84 155/201/84 152/203/84
f 81/204/85 82/202/85 152/203/85 158/205/85
f 80/206/84 81/204/84 158/205/84 170/207/84
f 79/208/84 80/206/84 170/207/84 171/209/84
f 167/210/86 79/208/86 171/209/86
f 181/192/87 87/191/87 78/211/87 177/212/87
f 78/211/88 87/191/88 86/194/88 77/213/88
f 77/213/89 86/194/89 85/196/89 76/214/89
f 76/214/90 85/196/90 84/198/90 75/215/90
f 75/215/91 84/198/91 83/200/91 74/216/91
f 74/216/92 83/200/92 82/202/92 73/217/92
f 73/217/93 82/202/93 81/204/93 72/218/93
f 72/218/92 81/204/92 80/206/92 71/219/92
f 71/219/92 80/206/92 79/208/92 70/220/92
f 69/85/94 70/220/94 79/208/94 167/210/94 169/87/94
f 177/212/95 78/211/95 68/221/95 186/222/95
f 68/221/96 78/211/96 77/213/96 67/223/96
f 67/223/97 77/213/97 76/214/97 66/224/97
f 66/224/98 76/214/98 75/215/98 65/225/98
f 65/225/99 75/215/99 74/216/99 64/226/99
f 64/226/100 74/216/100 73/217/100 63/227/100
f 63/227/101 73/217/101 72/218/101 62/228/101
f 62/228/100 72/218/100 71/219/100 61/229/100
f 61/229/100 71/219/100 70/220/100 60/230/100
f 60/230/102 70/220/102 69/85/102 59/83/102
f 186/222/103 68/221/103 58/231/103 188/232/103
f 58/231/104 68/221/104 67/223/104 57/233/104
f 57/233/105 67/223/105 66/224/105 56/234/105
f 56/234/106 66/224/106 65/225/106 55/235/106
f 55/235/107 65/225/107 64/226/107 54/236/107
f 54/236/108 64/226/108 63/227/108 53/237/108
f 53/237/109 63/227/109 62/228/109 52/238/109
f 52/238/108 62/228/108 61/229/108 51/239/108
f 51/239/108 61/229/108 60/230/108 50/240/108
f 50/240/110 60/230/110 59/83/110 49/81/110
f 188/232/111 58/231/111 48/241/111 192/242/111
f 48/241/112 58/231/112 57/233/112 47/243/112
f 47/243/113 57/233/113 56/234/113 46/244/113
f 46/244/114 56/234/114 55/235/114 45/245/114
f 45/245/115 55/235/115 54/236/115 44/246/115
f 44/246/116 54/236/116 53/237/116 43/247/116
f 43/247/117 53/237/117 52/238/117 42/248/117
f 42/248/116 52/238/116 51/239/116 41/249/116
f 41/249/116 51/239/116 50/240/116 40/250/116
f 40/250/118 50/240/118 49/81/118 39/79/118
f 192/242/119 48/241/119 38/251/119 193/252/119
f 38/251/120 48/241/120 47/243/120 37/253/120
f 37/253/121 47/243/121 46/244/121 36/254/121
f 36/254/122 46/244/122 45/245/122 35/255/122
f 35/255/123 45/245/123 44/246/123 34/256/123
f 34/256/124 44/246/124 43/247/124 33/257/124
f 33/257/125 43/247/125 42/248/125 32/258/125
f 32/258/124 42/248/124 41/249/124 31/259/124
f 31/259/124 41/249/124 40/250/124 30/260/124
f 30/260/126 40/250/126 39/79/126 29/77/126
f 193/252/127 38/251/127 28/261/127 195/262/127
f 28/261/128 38/251/128 37/253/128 27/263/128
f 27/263/129 37/253/129 36/254/129 26/264/129
f 26/264/130 36/254/130 35/255/130 25/265/130
f 25/265/131 35/255/131 34/256/131 24/266/131
f 24/266/132 34/256/132 33/257/132 23/267/132
f 23/267/133 33/257/133 32/258/133 22/268/133
f 22/268/132 32/258/132 31/259/132 21/269/132
f 21/269/132 31/259/132 30/260/132 20/270/132
f 20/270/134 30/260/134 29/77/134 19/74/134
f 195/262/135 28/261/135 9/271/135 196/272/135
f 9/271/136 28/261/136 27/263/136 10/273/136
f 10/273/137 27/263/137 26/264/137 11/274/137
f 11/274/138 26/264/138 25/265/138 12/275/138
f 12/275/139 25/265/139 24/266/139 13/276/139
f 13/276/140 24/266/140 23/267/140 14/277/140
f 14/277/141 23/267/141 22/268/141 15/278/141
f 15/278/140 22/268/140 21/269/140 16/279/140
f 16/279/140 21/269/140 20/270/140 17/280/140
f 17/280/142 20/270/142 19/74/142 18/73/142
