# Blender v2.93.6 OBJ File: 'koryto.blend'
# www.blender.org
mtllib vlnaR2.mtl
o Cube.002_Cube.003
v 6.820631 -0.102872 -13.485339
v 6.651317 0.024278 -13.486560
v -1.433570 -0.102872 13.279588
v -1.602883 0.024278 13.278367
v -0.441417 -0.102872 -14.443030
v 3.692198 0.927308 -14.371840
v -8.695618 -0.102872 12.321897
v -4.562002 0.927308 12.393086
v 2.693530 -0.102872 -0.102876
v 6.651317 0.017142 -13.486560
v 2.524217 0.024278 -0.104095
v -1.602883 0.017142 13.278367
v -3.691703 -0.074653 12.838168
v -3.347311 0.882114 12.834567
v -4.562002 0.412218 12.393086
v -4.568517 -0.102872 -1.060566
v -0.434902 0.927308 -0.989377
v 3.692198 0.412218 -14.371840
v 4.562497 -0.074653 -13.926759
v 4.906889 0.882114 -13.930360
v 0.779789 0.882114 -0.547896
v 0.435397 -0.074653 -0.544295
v 4.562497 0.440437 -13.926759
v -0.434902 0.412218 -0.989377
v -3.691703 0.440437 12.838168
v 2.524217 0.017142 -0.104095
vt 0.500000 0.125000
vt 0.625000 0.125000
vt 0.625000 0.250000
vt 0.500000 0.250000
vt 0.500000 0.375000
vt 0.625000 0.375000
vt 0.625000 0.500000
vt 0.500000 0.500000
vt 0.500000 0.625000
vt 0.625000 0.625000
vt 0.625000 0.750000
vt 0.500000 0.750000
vt 0.500000 0.875000
vt 0.625000 0.875000
vt 0.625000 1.000000
vt 0.500000 1.000000
vt 0.250000 0.625000
vt 0.375000 0.625000
vt 0.375000 0.750000
vt 0.250000 0.750000
vt 0.750000 0.625000
vt 0.875000 0.625000
vt 0.875000 0.750000
vt 0.750000 0.750000
vt 0.750000 0.500000
vt 0.875000 0.500000
vt 0.125000 0.625000
vt 0.125000 0.750000
vt 0.125000 0.500000
vt 0.250000 0.500000
vt 0.375000 0.500000
vt 0.375000 0.875000
vt 0.375000 1.000000
vt 0.375000 0.375000
vt 0.375000 0.250000
vt 0.375000 0.125000
vt 0.375000 0.000000
vt 0.500000 0.000000
vt 0.625000 0.000000
vn 0.9556 0.0000 0.2947
vn -0.3863 0.1425 0.9113
vn -0.9556 0.0000 -0.2947
vn 0.1767 -0.1434 -0.9738
vn 0.0055 -1.0000 0.0017
vn 0.4115 0.9025 0.1269
vn 0.0334 0.9994 0.0103
vn -0.0118 -0.9999 -0.0036
vn 0.2037 0.0524 -0.9776
vn 0.1432 -0.5161 -0.8445
vn 0.3863 -0.1425 -0.9113
vn -0.1229 0.9917 -0.0379
vn -0.1432 0.5161 0.8445
vn -0.2037 -0.0524 0.9776
vn -0.1767 0.1434 0.9738
vn 0.5685 0.8038 0.1753
usemtl None
s off
f 26/1/1 11/2/1 4/3/1 12/4/1
f 25/5/2 14/6/2 8/7/2 15/8/2
f 24/9/3 17/10/3 6/11/3 18/12/3
f 23/13/4 20/14/4 2/15/4 10/16/4
f 22/17/5 16/18/5 5/19/5 19/20/5
f 21/21/6 11/22/6 2/23/6 20/24/6
f 17/10/7 21/21/7 20/24/7 6/11/7
f 8/7/7 14/25/7 21/21/7 17/10/7
f 14/25/6 4/26/6 11/22/6 21/21/6
f 9/27/8 22/17/8 19/20/8 1/28/8
f 3/29/8 13/30/8 22/17/8 9/27/8
f 13/30/5 7/31/5 16/18/5 22/17/5
f 19/32/9 23/13/9 10/16/9 1/33/9
f 5/19/10 18/12/10 23/13/10 19/32/10
f 18/12/11 6/11/11 20/14/11 23/13/11
f 16/18/12 24/9/12 18/12/12 5/19/12
f 7/31/12 15/8/12 24/9/12 16/18/12
f 15/8/3 8/7/3 17/10/3 24/9/3
f 13/34/13 25/5/13 15/8/13 7/31/13
f 3/35/14 12/4/14 25/5/14 13/34/14
f 12/4/15 4/3/15 14/6/15 25/5/15
f 9/36/16 26/1/16 12/4/16 3/35/16
f 1/37/16 10/38/16 26/1/16 9/36/16
f 10/38/1 2/39/1 11/2/1 26/1/1
